PathFileType	4	(X/Y/Z)	C:/Users/Rosti/Documents/GitHub/TechForParalysis/Code/Model/04122019 - Marker Volunteer01/Rosti Data/New Session 103.trc	
DataRate	CameraRate	NumFrames	NumMarkers	Units	OrigDataRate	OrigDataStartFrame	OrigNumFrames	
100.00	100.00	31	14	m	100.00	156	620	
Frame#	Time	C7			PX			T8			IJ			SC			AC			AI			TS			AA			GH			LE			ME			US			RS			
		X1	Y1	Z1	X2	Y2	Z2	X3	Y3	Z3	X4	Y4	Z4	X5	Y5	Z5	X6	Y6	Z6	X7	Y7	Z7	X8	Y8	Z8	X9	Y9	Z9	X10	Y10	Z10	X11	Y11	Z11	X12	Y12	Z12	X13	Y13	Z13	X14	Y14	Z14	

156	1.55	0.0290341	0.0989	0.165495	-0.0045744	-0.14143	-0.070554	0.02478951	-0.11668	0.231057	0	0	0	0.02541996	0.00742	0.004273	0.1749259	0.03893	0.067276	0.1103392	0.01829	0.198887	0.1074263	-0.10011	0.230181	0.2248489	-0.00764	0.135559	0.2364119	0.00541	0.094963	0.2693599	-0.28494	0.0171	0.1835709	-0.30227	-0.018863	0.3007779	-0.537536	-0.105592	0.3677879	-0.500844	-0.115587
157	1.56	0.0290149	0.09889	0.165505	-0.004566	-0.14141	-0.070584	0.0247704	-0.1167	0.231055	0	0	0	0.02542762	0.00743	0.004268	0.1749119	0.03892	0.067284	0.1103181	0.01827	0.1989	0.1074135	-0.10013	0.230187	0.2248339	-0.00766	0.135576	0.2364029	0.00539	0.094978	0.2693449	-0.28495	0.017098	0.1835959	-0.30229	-0.01886	0.3008069	-0.53755	-0.10559	0.3678239	-0.500845	-0.115577
158	1.57	0.0289955	0.09885	0.165509	-0.0045632	-0.1414	-0.070615	0.02474815	-0.11672	0.231038	0	0	0	0.02542119	0.00743	0.004264	0.1749016	0.0389	0.067287	0.1102956	0.01823	0.19891	0.107396	-0.10018	0.230184	0.2248116	-0.00769	0.135582	0.2363946	0.00537	0.094981	0.2693216	-0.28498	0.017089	0.1836196	-0.30232	-0.018805	0.3008266	-0.537583	-0.10559	0.3678506	-0.500864	-0.115569
159	1.58	0.0289782	0.09881	0.165507	-0.0045638	-0.1414	-0.070641	0.02472463	-0.11676	0.231007	0	0	0	0.02540898	0.00742	0.004263	0.1748974	0.03888	0.067292	0.1102793	0.01819	0.198916	0.1073786	-0.10023	0.230177	0.2247904	-0.00774	0.135584	0.2363934	0.00533	0.09498	0.2693044	-0.28502	0.017075	0.1836364	-0.30235	-0.018725	0.3008364	-0.537612	-0.105603	0.3678694	-0.500887	-0.115563
160	1.59	0.0289645	0.09877	0.165502	-0.0045666	-0.1414	-0.070661	0.02470176	-0.11679	0.230964	0	0	0	0.02539773	0.0074	0.004265	0.1748976	0.03885	0.0673	0.1102707	0.01815	0.198919	0.1073641	-0.10027	0.230166	0.2247746	-0.00778	0.135586	0.2363956	0.0053	0.094979	0.2693006	-0.28505	0.017059	0.1836406	-0.30237	-0.018639	0.3008346	-0.537631	-0.105638	0.3678826	-0.500908	-0.115563
161	1.6	0.028955	0.09873	0.165498	-0.0045696	-0.14141	-0.070677	0.02468161	-0.11683	0.230913	0	0	0	0.02539328	0.00737	0.004268	0.1748996	0.03883	0.067309	0.1102665	0.01811	0.198919	0.1073526	-0.10031	0.230153	0.2247686	-0.00781	0.135593	0.2363936	0.00527	0.094979	0.2693056	-0.28507	0.017045	0.1836286	-0.30237	-0.018559	0.3008266	-0.537632	-0.105683	0.3678916	-0.500919	-0.115574
162	1.61	0.0289488	0.09869	0.165497	-0.0045701	-0.14141	-0.070699	0.02466538	-0.11687	0.230859	0	0	0	0.02539711	0.00735	0.004271	0.174902	0.03882	0.067317	0.1102628	0.01808	0.198916	0.1073423	-0.10034	0.230136	0.224772	-0.00783	0.135604	0.236384	0.00524	0.094979	0.269315	-0.28508	0.017032	0.183605	-0.30237	-0.018507	0.300824	-0.537617	-0.105729	0.367895	-0.500917	-0.115596
163	1.62	0.0289433	0.09867	0.165501	-0.0045707	-0.1414	-0.070731	0.02465261	-0.11692	0.230806	0	0	0	0.02540435	0.00732	0.00427	0.1749019	0.03881	0.06732	0.1102569	0.01806	0.19891	0.107331	-0.10037	0.230118	0.2247779	-0.00782	0.135615	0.2363669	0.00523	0.09498	0.2693269	-0.28508	0.017017	0.1835769	-0.30236	-0.018494	0.3008279	-0.537595	-0.105772	0.3678929	-0.500907	-0.115627
164	1.63	0.0289369	0.09864	0.165511	-0.0045783	-0.1414	-0.070767	0.02464172	-0.11697	0.230759	0	0	0	0.02540823	0.0073	0.004267	0.1748985	0.0388	0.06732	0.1102482	0.01804	0.198906	0.1073174	-0.1004	0.230103	0.2247795	-0.00783	0.135623	0.2363525	0.00522	0.094986	0.2693405	-0.28508	0.017	0.1835565	-0.30236	-0.018513	0.3008275	-0.53759	-0.105818	0.3678855	-0.500905	-0.115662
165	1.64	0.0289302	0.09862	0.165521	-0.004595	-0.1414	-0.070798	0.02463027	-0.117	0.230723	0	0	0	0.02539913	0.0073	0.004267	0.1748893	0.03878	0.067319	0.1102366	0.01803	0.198905	0.107301	-0.10042	0.230099	0.2247753	-0.00784	0.13563	0.2363443	0.00521	0.094995	0.2693483	-0.28508	0.01698	0.1835483	-0.30237	-0.018551	0.3008173	-0.537591	-0.105867	0.3678743	-0.500904	-0.115695
166	1.65	0.0289246	0.09858	0.165523	-0.0046164	-0.1414	-0.070822	0.02461628	-0.11704	0.230698	0	0	0	0.02537409	0.00728	0.004275	0.1748714	0.03876	0.06732	0.110223	0.01799	0.198908	0.1072836	-0.10044	0.230106	0.2247694	-0.00787	0.135635	0.2363384	0.00519	0.095008	0.2693374	-0.2851	0.016961	0.1835504	-0.30238	-0.018599	0.3007984	-0.537612	-0.105911	0.3678584	-0.500918	-0.115723
167	1.66	0.0289192	0.09852	0.165518	-0.0046389	-0.14141	-0.070839	0.02459814	-0.11709	0.230682	0	0	0	0.02533611	0.00725	0.004296	0.1748474	0.03871	0.067327	0.1102069	0.01794	0.198916	0.1072663	-0.10048	0.230121	0.2247624	-0.00792	0.135641	0.2363274	0.00515	0.095024	0.2693024	-0.28515	0.016945	0.1835574	-0.30242	-0.018651	0.3007714	-0.537658	-0.105947	0.3678384	-0.500956	-0.115749
168	1.67	0.0289097	0.09845	0.16551	-0.004664	-0.14141	-0.070856	0.02457506	-0.11712	0.230674	0	0	0	0.02529568	0.00723	0.004322	0.1748208	0.03868	0.067344	0.1101859	0.01789	0.198927	0.1072473	-0.10051	0.230133	0.2247448	-0.00796	0.135647	0.2363088	0.00511	0.095042	0.2692538	-0.28519	0.016928	0.1835638	-0.30245	-0.018701	0.3007358	-0.537694	-0.105983	0.3678148	-0.500985	-0.115775
169	1.68	0.0288916	0.0984	0.165507	-0.0046961	-0.1414	-0.070882	0.02454747	-0.11715	0.23067	0	0	0	0.02525918	0.00723	0.00434	0.1747944	0.03866	0.067366	0.1101589	0.01784	0.198935	0.107224	-0.10055	0.230134	0.2247144	-0.00801	0.135651	0.2362804	0.00508	0.095059	0.2692094	-0.28522	0.016905	0.1835684	-0.30247	-0.018745	0.3006904	-0.537716	-0.106025	0.3677834	-0.501006	-0.115809
170	1.69	0.0288627	0.09836	0.165513	-0.0047367	-0.14137	-0.070917	0.02451672	-0.11718	0.230669	0	0	0	0.02521813	0.00726	0.004347	0.1747719	0.03865	0.067385	0.1101273	0.0178	0.198937	0.1071954	-0.10059	0.23012	0.2246739	-0.00804	0.135651	0.2362469	0.00506	0.095069	0.2691779	-0.28523	0.016874	0.1835649	-0.30247	-0.018779	0.3006399	-0.537716	-0.106078	0.3677429	-0.50101	-0.115853
171	1.7	0.0288249	0.09834	0.165528	-0.0047825	-0.14135	-0.07096	0.02448444	-0.11721	0.230671	0	0	0	0.02517152	0.00729	0.004346	0.1747503	0.03866	0.067392	0.1100929	0.01777	0.19893	0.1071624	-0.10062	0.230096	0.2246293	-0.00806	0.135648	0.2362183	0.00506	0.095065	0.2691543	-0.28521	0.016838	0.1835503	-0.30245	-0.018812	0.3005883	-0.5377	-0.106147	0.3676943	-0.500999	-0.115907
172	1.71	0.0287853	0.09834	0.165548	-0.0048276	-0.14134	-0.071	0.02445282	-0.11723	0.230676	0	0	0	0.02513113	0.00731	0.004339	0.1747281	0.03866	0.067384	0.1100583	0.01775	0.198915	0.107128	-0.10065	0.230072	0.2245931	-0.00807	0.135639	0.2362011	0.00506	0.095048	0.2691251	-0.2852	0.016805	0.1835251	-0.30243	-0.018848	0.3005411	-0.537674	-0.106236	0.3676441	-0.500981	-0.115969
173	1.72	0.0287528	0.09835	0.16557	-0.0048689	-0.14133	-0.071029	0.02442431	-0.11725	0.230684	0	0	0	0.02509696	0.0073	0.004337	0.174705	0.03865	0.067363	0.1100278	0.01773	0.198898	0.1070962	-0.10067	0.230057	0.224571	-0.00806	0.135624	0.236192	0.00506	0.095023	0.269084	-0.2852	0.016785	0.183499	-0.30239	-0.018879	0.300495	-0.537636	-0.106348	0.367596	-0.500957	-0.116038
174	1.73	0.0287335	0.09836	0.165593	-0.0049075	-0.14133	-0.071042	0.02440124	-0.11726	0.230696	0	0	0	0.02506546	0.00725	0.004345	0.1746835	0.03863	0.067339	0.110006	0.01771	0.198883	0.1070721	-0.10068	0.230054	0.2245595	-0.00807	0.135612	0.2361865	0.00506	0.095	0.2690355	-0.28523	0.016783	0.1834825	-0.30236	-0.01889	0.3004425	-0.537601	-0.106477	0.3675525	-0.500944	-0.116108
175	1.74	0.0287295	0.09837	0.165613	-0.0049442	-0.14134	-0.071043	0.02438492	-0.11728	0.230708	0	0	0	0.02503842	0.00721	0.004354	0.1746641	0.0386	0.067317	0.109995	0.01769	0.198872	0.1070578	-0.10069	0.230056	0.2245521	-0.00808	0.135606	0.2361811	0.00506	0.094983	0.2689831	-0.28527	0.016796	0.1834841	-0.30234	-0.018874	0.3003851	-0.53757	-0.10662	0.3675181	-0.500935	-0.116174
176	1.75	0.0287403	0.09836	0.165622	-0.0049773	-0.14133	-0.071044	0.02437561	-0.11728	0.230716	0	0	0	0.02501582	0.00719	0.00436	0.1746503	0.03858	0.0673	0.1099928	0.01767	0.198863	0.107053	-0.1007	0.230054	0.2245473	-0.00808	0.135605	0.2361773	0.00506	0.094969	0.2689193	-0.28532	0.016819	0.1835063	-0.3023	-0.018832	0.3003263	-0.537533	-0.106772	0.3674903	-0.500916	-0.116237
177	1.76	0.0287625	0.09833	0.165617	-0.0050042	-0.14131	-0.071054	0.02437224	-0.1173	0.230722	0	0	0	0.02499848	0.00718	0.004364	0.1746454	0.03856	0.067291	0.1099962	0.01766	0.198856	0.1070552	-0.10072	0.230044	0.2245494	-0.00809	0.135608	0.2361794	0.00505	0.09496	0.2688394	-0.28538	0.016849	0.1835494	-0.30228	-0.018775	0.3002684	-0.537506	-0.106933	0.3674684	-0.500905	-0.116302
178	1.77	0.0287902	0.0983	0.165601	-0.0050225	-0.14129	-0.07108	0.02437255	-0.11731	0.230725	0	0	0	0.02498978	0.00718	0.004366	0.1746516	0.03855	0.067285	0.1100031	0.01764	0.198848	0.1070617	-0.10074	0.230024	0.2245606	-0.0081	0.135613	0.2361926	0.00504	0.094955	0.2687536	-0.28543	0.016873	0.1835986	-0.30227	-0.01873	0.3002166	-0.537471	-0.107119	0.3674466	-0.500892	-0.116377
179	1.78	0.0288163	0.09824	0.165582	-0.0050303	-0.14128	-0.071114	0.02437366	-0.11734	0.230727	0	0	0	0.02499173	0.00718	0.004365	0.1746645	0.03853	0.067285	0.1100123	0.01762	0.198837	0.1070705	-0.10078	0.229999	0.2245765	-0.00812	0.135618	0.2362085	0.00502	0.094962	0.2686825	-0.28548	0.016877	0.1836305	-0.30228	-0.018717	0.3001785	-0.537427	-0.107341	0.3674235	-0.500885	-0.116472
180	1.79	0.0288359	0.0982	0.16557	-0.0050277	-0.14128	-0.071149	0.02437308	-0.11737	0.230733	0	0	0	0.02500455	0.00717	0.004362	0.1746831	0.03851	0.067296	0.1100231	0.01759	0.198828	0.1070798	-0.10082	0.229976	0.2245901	-0.00815	0.135628	0.2362211	0.00499	0.094986	0.2686441	-0.28552	0.016852	0.1836211	-0.30231	-0.018747	0.3001531	-0.537363	-0.107594	0.3674031	-0.500866	-0.116596
181	1.8	0.0288468	0.09816	0.165569	-0.0050198	-0.14129	-0.071174	0.02436903	-0.11741	0.23075	0	0	0	0.02502152	0.00715	0.00436	0.174702	0.03847	0.067318	0.1100339	0.01755	0.198825	0.1070867	-0.10086	0.229966	0.224597	-0.00819	0.135646	0.236229	0.00495	0.095029	0.268638	-0.28556	0.016798	0.18357	-0.30235	-0.018813	0.300126	-0.537297	-0.10786	0.367392	-0.500835	-0.116756
182	1.81	0.0288504	0.09813	0.165579	-0.0050135	-0.14129	-0.071186	0.02436103	-0.11744	0.230781	0	0	0	0.025036	0.00712	0.004361	0.1747179	0.03843	0.067346	0.1100428	0.0175	0.198832	0.1070871	-0.10089	0.22997	0.2246019	-0.00824	0.13567	0.2362349	0.00491	0.095076	0.2686549	-0.28558	0.016722	0.1834929	-0.30239	-0.018906	0.3000829	-0.53723	-0.108119	0.3673959	-0.500781	-0.11695
183	1.82	0.0288501	0.09811	0.165596	-0.0050134	-0.14128	-0.071188	0.02434899	-0.11747	0.230828	0	0	0	0.02504486	0.00712	0.004367	0.1747276	0.03838	0.067372	0.1100466	0.01746	0.19885	0.1070779	-0.10092	0.229986	0.2246076	-0.00828	0.135696	0.2362386	0.00487	0.095109	0.2686776	-0.28559	0.016635	0.1834126	-0.30242	-0.01902	0.3000286	-0.537161	-0.108356	0.3674106	-0.500697	-0.117169
184	1.83	0.0288512	0.09808	0.165618	-0.0050181	-0.14127	-0.071184	0.02433395	-0.1175	0.23089	0	0	0	0.0250461	0.00711	0.004376	0.1747278	0.03834	0.067393	0.1100438	0.01742	0.198879	0.1070592	-0.10095	0.23001	0.2246108	-0.00832	0.135719	0.2362358	0.00482	0.095122	0.2686908	-0.2856	0.016554	0.1833518	-0.30244	-0.019152	0.2999898	-0.537109	-0.108569	0.3674258	-0.500612	-0.117399
185	1.84	0.0288566	0.09806	0.165639	-0.0050255	-0.14126	-0.071183	0.02431706	-0.11752	0.230963	0	0	0	0.02503611	0.00712	0.00438	0.1747212	0.0383	0.067407	0.1100356	0.01738	0.19891	0.1070348	-0.10098	0.230037	0.2246062	-0.00836	0.135729	0.2362252	0.00478	0.095113	0.2686912	-0.28561	0.016487	0.1833152	-0.30244	-0.019303	0.2999942	-0.537051	-0.108782	0.3674342	-0.500514	-0.117638
186	1.85	0.0288671	0.09803	0.165662	-0.005035	-0.14126	-0.071178	0.02429926	-0.11754	0.231047	0	0	0	0.0250188	0.00712	0.004383	0.1747113	0.03826	0.067419	0.1100268	0.01733	0.198937	0.1070108	-0.10102	0.230068	0.2245983	-0.00841	0.13573	0.2362173	0.00474	0.095094	0.2686803	-0.28564	0.016441	0.1832933	-0.30245	-0.019465	0.3000253	-0.536987	-0.109025	0.3674313	-0.500418	-0.117885
